#!OML:ASF E:\motion texture\Top Level 1\Subject 1\Session 1\male.ASF
:FULLY-SPECIFIED
:DEGREES
641
root -8.37851 18.1689 4.70428 527.551 -82.6242 -525.22
lowerback -1.33693 -0.120335 2.47119
upperback -5.98941 -0.187295 2.85185
thorax -5.4478 -0.218345 1.59021
lowerneck 0.706975 -2.25289 -8.73769
upperneck -33.0817 -2.78267 12.3635
head -10.2512 -2.25422 6.44668
rclavicle -1.0138e-014 -1.19271e-014
rhumerus 75.1769 -15.7964 -46.6014
rradius 69.9383
rwrist -0.0908465
rhand -20.5929 -22.0029
rfingers 7.12502
rthumb 5.76742 -51.9044
lclavicle -1.0138e-014 -1.19271e-014
lhumerus 66.1182 10.0495 42.9341
lradius 69.1295
lwrist -3.15824
lhand -22.6145 22.6404
lfingers 7.12502
lthumb 3.81541 52.586
rfemur -19.0454 -6.04247 19.4713
rtibia 58.3631
rfoot 0.115587 -15.4702
rtoes 2.11724
lfemur -10.6295 -2.5749 -19.648
ltibia 18.8985
lfoot -6.61849 1.94286
ltoes 0.621978
642
root -8.52735 18.1876 4.70465 528.627 -82.6663 -526.301
lowerback -1.27928 -0.175569 2.31278
upperback -6.09734 -0.261249 2.87015
thorax -5.59332 -0.249307 1.7032
lowerneck 0.701288 -2.21458 -8.74616
upperneck -33.1035 -2.74573 12.3187
head -10.2652 -2.23237 6.43124
rclavicle -1.19271e-014 -1.51076e-014
rhumerus 75.8191 -16.0046 -46.4683
rradius 69.4052
rwrist -0.284032
rhand -20.4304 -22.3461
rfingers 7.12502
rthumb 5.92428 -52.2433
lclavicle -1.19271e-014 -1.51076e-014
lhumerus 67.7877 10.8485 43.3111
lradius 68.0462
lwrist -2.95672
lhand -22.706 23.0246
lfingers 7.12502
lthumb 3.72703 52.9717
rfemur -19.8028 -6.13495 19.2855
rtibia 58.1455
rfoot -0.0830271 -15.7218
rtoes 2.45747
lfemur -9.90385 -2.5438 -19.9244
ltibia 18.5709
lfoot -6.83359 1.90592
ltoes 0.415799
643
root -8.67526 18.2057 4.7043 529.688 -82.7082 -527.356
lowerback -1.22473 -0.229171 2.16394
upperback -6.20873 -0.333605 2.88631
thorax -5.74065 -0.27974 1.80896
lowerneck 0.699569 -2.17864 -8.75274
upperneck -33.1293 -2.71232 12.2737
head -10.2811 -2.21245 6.41606
rclavicle 1.15295e-014 -4.37326e-014
rhumerus 76.4648 -16.2141 -46.3536
rradius 68.8776
rwrist -0.48404
rhand -20.2925 -22.7074
rfingers 7.12502
rthumb 6.05739 -52.6008
lclavicle 1.15295e-014 -4.37326e-014
lhumerus 69.4214 11.5974 43.7293
lradius 66.9764
lwrist -2.7836
lhand -22.7984 23.4235
lfingers 7.12502
lthumb 3.63779 53.3722
rfemur -20.5281 -6.21181 19.1124
rtibia 57.7899
rfoot -0.335265 -15.9529
rtoes 2.77156
lfemur -9.19342 -2.51122 -20.19
ltibia 18.239
lfoot -7.03523 1.86906
ltoes 0.184353
644
root -8.82228 18.2233 4.70317 530.732 -82.7515 -528.385
lowerback -1.17322 -0.2815 2.02475
upperback -6.32245 -0.404814 2.89947
thorax -5.8887 -0.30989 1.90655
lowerneck 0.699262 -2.14512 -8.75626
upperneck -33.1576 -2.68254 12.2276
head -10.2978 -2.19446 6.40028
rclavicle -1.88845e-014 -1.66979e-014
rhumerus 77.1138 -16.4271 -46.2587
rradius 68.3584
rwrist -0.685378
rhand -20.1681 -23.0925
rfingers 7.12502
rthumb 6.17754 -52.9824
lclavicle -1.88845e-014 -1.66979e-014
lhumerus 71.0195 12.298 44.1832
lradius 65.9236
lwrist -2.63935
lhand -22.8807 23.8427
lfingers 7.12502
lthumb 3.55835 53.7927
rfemur -21.2171 -6.27385 18.9503
rtibia 57.2981
rfoot -0.638856 -16.1592
rtoes 3.07193
lfemur -8.49968 -2.47709 -20.445
ltibia 17.908
lfoot -7.22636 1.83092
ltoes -0.08371
645
root -8.96851 18.2402 4.70127 531.753 -82.7952 -529.381
lowerback -1.12535 -0.332758 1.89662
upperback -6.43891 -0.475111 2.91038
thorax -6.03762 -0.339986 1.99593
lowerneck 0.701779 -2.11416 -8.75638
upperneck -33.1891 -2.65693 12.1792
head -10.3159 -2.17861 6.3836
rclavicle 1.72943e-014 -6.36111e-015
rhumerus 77.7648 -16.6402 -46.182
rradius 67.8495
rwrist -0.89193
rhand -20.0668 -23.498
rfingers 7.12502
rthumb 6.27536 -53.385
lclavicle 1.72943e-014 -6.36111e-015
lhumerus 72.5789 12.9501 44.6712
lradius 64.8933
lwrist -2.52455
lhand -22.9552 24.2794
lfingers 7.12502
lthumb 3.48636 54.2307
rfemur -21.8695 -6.31843 18.7997
rtibia 56.6753
rfoot -0.992556 -16.3338
rtoes 3.33947
lfemur -7.82173 -2.44237 -20.688
ltibia 17.5777
lfoot -7.40507 1.79292
ltoes -0.387296
646
root -9.1139 18.2565 4.69852 532.745 -82.8401 -530.339
lowerback -1.07733 -0.382007 1.77843
upperback -6.55869 -0.543063 2.91877
thorax -6.19028 -0.36929 2.07744
lowerneck 0.70527 -2.0862 -8.75341
upperneck -33.2229 -2.63566 12.1296
head -10.3346 -2.16501 6.36637
rclavicle 2.68359e-014 2.94201e-014
rhumerus 78.4147 -16.8559 -46.1207
rradius 67.3507
rwrist -1.10062
rhand -19.9863 -23.9208
rfingers 7.12502
rthumb 6.35304 -53.8056
lclavicle 2.68359e-014 2.94201e-014
lhumerus 74.0997 13.552 45.1897
lradius 63.8912
lwrist -2.42935
lhand -23.0241 24.7362
lfingers 7.12502
lthumb 3.41979 54.6885
rfemur -22.4826 -6.34568 18.6593
rtibia 55.9251
rfoot -1.38682 -16.4781
rtoes 3.57667
lfemur -7.16282 -2.40428 -20.9178
ltibia 17.2558
lfoot -7.57293 1.75095
ltoes -0.720244
647
root -9.25857 18.2722 4.69491 533.699 -82.8875 -531.251
lowerback -1.03334 -0.430089 1.67166
upperback -6.67967 -0.609898 2.92484
thorax -6.34207 -0.398502 2.1504
lowerneck 0.709545 -2.06178 -8.74546
upperneck -33.2582 -2.61987 12.0768
head -10.3535 -2.15419 6.34746
rclavicle 3.73715e-014 7.95139e-015
rhumerus 79.0654 -17.0743 -46.077
rradius 66.8651
rwrist -1.31011
rhand -19.924 -24.3632
rfingers 7.12502
rthumb 6.41318 -54.2461
lclavicle 3.73715e-014 7.95139e-015
lhumerus 75.5811 14.1079 45.7325
lradius 62.92
lwrist -2.35726
lhand -23.0881 25.2137
lfingers 7.12502
lthumb 3.35806 55.167
rfemur -23.0557 -6.3566 18.5295
rtibia 55.0533
rfoot -1.80238 -16.5897
rtoes 3.79093
lfemur -6.52271 -2.36406 -21.1332
ltibia 16.943
lfoot -7.72968 1.70444
ltoes -1.08381
648
root -9.40254 18.2873 4.69038 534.599 -82.9358 -532.101
lowerback -0.991936 -0.476645 1.57879
upperback -6.80255 -0.674976 2.92914
thorax -6.49468 -0.427494 2.21395
lowerneck 0.717108 -2.04121 -8.73178
upperneck -33.2969 -2.61027 12.0201
head -10.3738 -2.14651 6.32674
rclavicle -5.36719e-015 5.40694e-014
rhumerus 79.7165 -17.2938 -46.0515
rradius 66.3909
rwrist -1.51773
rhand -19.8761 -24.8175
rfingers 7.12502
rthumb 6.4594 -54.699
lclavicle -5.36719e-015 5.40694e-014
lhumerus 77.0202 14.6186 46.2929
lradius 61.9822
lwrist -2.30865
lhand -23.1482 25.7162
lfingers 7.12502
lthumb 3.29999 55.6704
rfemur -23.5879 -6.34856 18.4118
rtibia 54.0645
rfoot -2.22962 -16.6609
rtoes 3.96878
lfemur -5.90124 -2.32054 -21.3309
ltibia 16.6411
lfoot -7.87461 1.65303
ltoes -1.47199
649
root -9.54593 18.3017 4.685 535.492 -82.9878 -532.938
lowerback -0.954091 -0.521761 1.49216
upperback -6.92631 -0.738603 2.93025
thorax -6.64641 -0.456026 2.27087
lowerneck 0.722018 -2.02292 -8.71975
upperneck -33.3335 -2.60299 11.9664
head -10.3923 -2.13992 6.30732
rclavicle 2.62396e-014 -1.43125e-014
rhumerus 80.3666 -17.5151 -46.0418
rradius 65.9302
rwrist -1.71962
rhand -19.8415 -25.2915
rfingers 7.12502
rthumb 6.49285 -55.172
lclavicle 2.62396e-014 -1.43125e-014
lhumerus 78.4182 15.0861 46.8698
lradius 61.0817
lwrist -2.27229
lhand -23.2025 26.2381
lfingers 7.12502
lthumb 3.24755 56.1931
rfemur -24.0783 -6.32524 18.2968
rtibia 52.9656
rfoot -2.65946 -16.6816
rtoes 4.14655
lfemur -5.29826 -2.27472 -21.5197
ltibia 16.3521
lfoot -8.0079 1.59544
ltoes -1.88349
650
root -9.68874 18.3154 4.67872 536.357 -83.0421 -533.739
lowerback -0.919157 -0.565434 1.41508
upperback -7.05156 -0.800647 2.92889
thorax -6.79836 -0.484258 2.32003
lowerneck 0.727127 -2.00753 -8.706
upperneck -33.3688 -2.59953 11.9126
head -10.4099 -2.13519 6.28761
rclavicle 1.23246e-014 2.46493e-014
rhumerus 81.0163 -17.7367 -46.0486
rradius 65.4807
rwrist -1.91379
rhand -19.8297 -25.7731
rfingers 7.12502
rthumb 6.50423 -55.6533
lclavicle 1.23246e-014 2.46493e-014
lhumerus 79.7725 15.5114 47.4576
lradius 60.2191
lwrist -2.2505
lhand -23.255 26.777
lfingers 7.12502
lthumb 3.19681 56.7327
rfemur -24.5278 -6.28449 18.1881
rtibia 51.7669
rfoot -3.07265 -16.6563
rtoes 4.28145
lfemur -4.71396 -2.22513 -21.6949
ltibia 16.0769
lfoot -8.12971 1.53122
ltoes -2.31636
651
root -9.83106 18.3285 4.67151 537.199 -83.0989 -534.513
lowerback -0.887053 -0.607371 1.3459
upperback -7.17798 -0.86072 2.92509
thorax -6.95029 -0.511929 2.36236
lowerneck 0.728672 -1.99412 -8.69945
upperneck -33.3987 -2.59657 11.8682
head -10.4242 -2.13065 6.27219
rclavicle 1.98785e-015 3.18055e-015
rhumerus 81.6642 -17.9574 -46.0714
rradius 65.0442
rwrist -2.09706
rhand -19.8392 -26.2621
rfingers 7.12502
rthumb 6.49503 -56.1426
lclavicle 1.98785e-015 3.18055e-015
lhumerus 81.0829 15.8962 48.0525
lradius 59.3972
lwrist -2.23331
lhand -23.2992 27.3339
lfingers 7.12502
lthumb 3.15418 57.2903
rfemur -24.9357 -6.22649 18.0835
rtibia 50.4773
rfoot -3.45676 -16.5923
rtoes 4.36877
lfemur -4.14766 -2.17169 -21.8577
ltibia 15.817
lfoot -8.24082 1.45985
ltoes -2.76886
